<svg xmlns="http://www.w3.org/2000/svg" viewBox="0 0 300 340" width="300" height="340">
  <ellipse cx="150" cy="192" rx="80" ry="94" fill="#FFB454" stroke="#D9822B" stroke-width="5"/>
  <ellipse cx="150" cy="208" rx="42" ry="52" fill="#FFD08A" opacity="0.55"/>
  <ellipse cx="122" cy="280" rx="21" ry="14" fill="#D9822B"/>
  <ellipse cx="178" cy="280" rx="21" ry="14" fill="#D9822B"/>

  <g transform="rotate(-4 150 108)">
    <path d="M100,112 C108,44 132,8 156,14 C176,19 168,64 150,104 Z" fill="#7C6FEF" stroke="#5B4FD1" stroke-width="4" stroke-linejoin="round"/>
    <ellipse cx="150" cy="112" rx="56" ry="15" fill="#7C6FEF" stroke="#5B4FD1" stroke-width="4"/>
    <polygon points="150.0,19.0 147.1,26.0 139.5,26.6 145.2,31.5 143.5,38.9 150.0,35.0 156.5,38.9 154.8,31.5 160.5,26.6 152.9,26.0" fill="#FFF3B0"/>
  </g>

  <line x1="80" y1="195" x2="58" y2="232" stroke="#FFB454" stroke-width="24" stroke-linecap="round"/>
  <circle cx="58" cy="232" r="14" fill="#FFB454" stroke="#D9822B" stroke-width="3"/>
<line x1="216" y1="186" x2="246" y2="104" stroke="#FFB454" stroke-width="22" stroke-linecap="round"/>
  <g transform="translate(246,104) rotate(25)">
    <ellipse cx="0" cy="9" rx="13" ry="14" fill="#FFB454" stroke="#D9822B" stroke-width="3"/>
    <circle cx="-7" cy="-2" r="5.5" fill="#FFB454" stroke="#D9822B" stroke-width="2.5"/>
    <circle cx="0.5" cy="-4.5" r="5.5" fill="#FFB454" stroke="#D9822B" stroke-width="2.5"/>
    <circle cx="8" cy="-2" r="5.5" fill="#FFB454" stroke="#D9822B" stroke-width="2.5"/>
    <ellipse cx="-13" cy="11" rx="7" ry="9" fill="#FFB454" stroke="#D9822B" stroke-width="3" transform="rotate(-20 -13 11)"/>
    <rect x="-5.5" y="-35" width="11" height="32" rx="5.5" fill="#FFB454" stroke="#D9822B" stroke-width="3"/>
  </g>
<circle cx="104" cy="182" r="12" fill="#FF8FA3" opacity="0.75"/><circle cx="196" cy="182" r="12" fill="#FF8FA3" opacity="0.75"/>
  <ellipse cx="126" cy="158" rx="16" ry="19" fill="white" stroke="#333" stroke-width="3"/>
  <ellipse cx="174" cy="158" rx="16" ry="19" fill="white" stroke="#333" stroke-width="3"/>
  <circle cx="129" cy="161" r="7" fill="#2B2B2B"/>
  <circle cx="177" cy="161" r="7" fill="#2B2B2B"/>
  <circle cx="132" cy="157" r="2.2" fill="white"/>
  <circle cx="180" cy="157" r="2.2" fill="white"/>
<path d="M122,182 Q150,204 178,182" stroke="#7A3B00" stroke-width="4.5" fill="none" stroke-linecap="round"/></svg>